HIERARCHY
ROOT joint_Root
{
	OFFSET 0.0 0.0 0.0
	CHANNELS 6 Xposition Yposition Zposition Zrotation Xrotation Yrotation 
	JOINT Hips
	{
		OFFSET -17.1583 93.1646 452.98
		CHANNELS 6 Xposition Yposition Zposition Zrotation Xrotation Yrotation 
		JOINT Spine
		{
			OFFSET 15.7357 0.0 0.0
			CHANNELS 6 Xposition Yposition Zposition Zrotation Xrotation Yrotation 
			JOINT Chest
			{
				OFFSET 8.98455 -0.406207 0.0
				CHANNELS 6 Xposition Yposition Zposition Zrotation Xrotation Yrotation 
				JOINT Neck
				{
					OFFSET 16.3773 0.0 0.0
					CHANNELS 6 Xposition Yposition Zposition Zrotation Xrotation Yrotation 
					JOINT Head
					{
						OFFSET 6.45672 0.0 0.0
						CHANNELS 6 Xposition Yposition Zposition Zrotation Xrotation Yrotation 
						End Site
						{
							OFFSET 0.0 0.0 0.0
						}
					}
				}
				JOINT Shoulder_L
				{
					OFFSET 12.9942 -0.242716 4.98039
					CHANNELS 6 Xposition Yposition Zposition Zrotation Xrotation Yrotation 
					JOINT UpperArm_L
					{
						OFFSET 5.34809 0.0 0.0
						CHANNELS 6 Xposition Yposition Zposition Zrotation Xrotation Yrotation 
						JOINT LowerArm_L
						{
							OFFSET 24.3286 1.87007e-05 0.0
							CHANNELS 6 Xposition Yposition Zposition Zrotation Xrotation Yrotation 
							JOINT Hand_L
							{
								OFFSET 22.2916 0.0 0.0
								CHANNELS 6 Xposition Yposition Zposition Zrotation Xrotation Yrotation 
								End Site
								{
									OFFSET 0.0 0.0 0.0
								}
							}
						}
					}
				}
				JOINT Shoulder_R
				{
					OFFSET 12.9945 -0.242716 -4.98039
					CHANNELS 6 Xposition Yposition Zposition Zrotation Xrotation Yrotation 
					JOINT UpperArm_R
					{
						OFFSET -5.34813 0.0 0.0
						CHANNELS 6 Xposition Yposition Zposition Zrotation Xrotation Yrotation 
						JOINT LowerArm_R
						{
							OFFSET -24.3289 0.000322201 0.0
							CHANNELS 6 Xposition Yposition Zposition Zrotation Xrotation Yrotation 
							JOINT Hand_R
							{
								OFFSET -22.2915 -0.000108084 0.0
								CHANNELS 6 Xposition Yposition Zposition Zrotation Xrotation Yrotation 
								End Site
								{
									OFFSET 0.0 0.0 0.0
								}
							}
						}
					}
				}
			}
		}
		JOINT UpperLeg_L
		{
			OFFSET -2.19248 -6.46944 0.0
			CHANNELS 6 Xposition Yposition Zposition Zrotation Xrotation Yrotation 
			JOINT LowerLeg_L
			{
				OFFSET 39.0811 0.0 -1.23785e-05
				CHANNELS 6 Xposition Yposition Zposition Zrotation Xrotation Yrotation 
				JOINT Foot_L
				{
					OFFSET 40.9854 0.0 -1.26872e-05
					CHANNELS 6 Xposition Yposition Zposition Zrotation Xrotation Yrotation 
					JOINT Toes_L
					{
						OFFSET 11.7543 0.0 0.0
						CHANNELS 6 Xposition Yposition Zposition Zrotation Xrotation Yrotation 
						End Site
						{
							OFFSET 0.0 0.0 0.0
						}
					}
				}
			}
		}
		JOINT UpperLeg_R
		{
			OFFSET -2.19251 6.46944 0.0
			CHANNELS 6 Xposition Yposition Zposition Zrotation Xrotation Yrotation 
			JOINT LowerLeg_R
			{
				OFFSET -39.0811 -0.00228153 -0.0401928
				CHANNELS 6 Xposition Yposition Zposition Zrotation Xrotation Yrotation 
				JOINT Foot_R
				{
					OFFSET -40.9854 0.0 0.0
					CHANNELS 6 Xposition Yposition Zposition Zrotation Xrotation Yrotation 
					JOINT Toes_R
					{
						OFFSET -11.7543 0.0 0.0
						CHANNELS 6 Xposition Yposition Zposition Zrotation Xrotation Yrotation 
						End Site
						{
							OFFSET 0.0 0.0 0.0
						}
					}
				}
			}
		}
	}
}
MOTION
Frames:	7
Frame Time:	0.0333333
0.000000 0.000000 0.000000 0.000000 0.000000 -0.000000 -206.695000 93.911900 242.953000 27.273800 85.713900 60.923200 15.735700 0.000005 -0.000001 54.278900 85.284400 -52.268200 8.984550 -0.406207 -0.000000 -0.003818 -5.641260 4.021090 16.377300 -0.000001 -0.000001 -0.255713 6.218230 -1.362380 6.456720 -0.000001 -0.000000 -9.423930 9.728910 2.669470 12.994200 -0.242716 4.980390 -92.126900 6.482030 -71.790400 5.348090 -0.000007 -0.000001 -62.328200 11.384300 -16.080000 24.328600 0.000019 0.000005 19.369800 13.133000 -57.125200 22.291600 -0.000001 0.000005 1.172280 5.052650 6.178760 12.994500 -0.242716 -4.980390 89.215400 2.064530 -69.185700 -5.348130 -0.000001 -0.000004 -56.435700 -11.020700 12.400200 -24.328900 0.000322 -0.000009 0.717764 4.708570 -8.689520 -22.291500 -0.000108 -0.000004 6.587040 5.260710 1.147960 -2.192480 -6.469440 -0.000000 -175.061000 -8.613950 6.637190 39.081100 -0.000007 -0.000012 -0.001701 0.009832 9.810090 40.985400 -0.000006 -0.000013 -3.710700 19.357200 -58.697400 11.754300 -0.000000 0.000003 0.924581 1.118440 -17.016800 -2.192510 6.469440 -0.000001 -176.736000 -0.299971 155.425000 -39.081100 -0.002282 -0.040193 0.022113 -0.020918 42.007400 -40.985400 0.000008 0.000006 -6.527780 -9.937890 -59.283000 -11.754300 -0.000006 -0.000006 0.001049 0.147603 -10.587300
0.000000 0.000000 0.000000 0.000000 0.000000 -0.000000 -204.083000 93.768200 243.208000 6.173830 86.144400 81.286500 15.735700 0.000005 -0.000001 50.460800 85.053400 -48.442300 8.984550 -0.406207 -0.000000 -0.015865 -6.433600 4.036890 16.377300 -0.000001 -0.000001 -1.108550 5.693450 -0.977729 6.456720 -0.000001 -0.000000 -9.502260 9.412480 3.099740 12.994200 -0.242716 4.980390 -91.833900 5.950540 -72.837200 5.348090 -0.000007 -0.000001 -61.884200 10.959300 -19.437900 24.328600 0.000019 0.000005 20.972400 11.748000 -62.022900 22.291600 -0.000001 0.000005 0.988603 5.061500 5.982220 12.994500 -0.242716 -4.980390 89.422500 1.529810 -69.317900 -5.348130 -0.000001 -0.000004 -57.098900 -11.625300 12.801100 -24.328900 0.000322 -0.000009 0.765653 4.917500 -8.872970 -22.291500 -0.000108 -0.000004 6.671970 5.266420 0.994884 -2.192480 -6.469440 -0.000000 -174.076000 -9.491150 8.553130 39.081100 -0.000007 -0.000012 0.000724 -0.005464 7.553630 40.985400 -0.000006 -0.000013 -4.813410 22.067400 -57.035700 11.754300 -0.000000 0.000003 0.996058 1.141050 -18.032800 -2.192510 6.469440 -0.000001 -176.329000 0.474891 154.775000 -39.081100 -0.002282 -0.040193 0.017802 -0.023378 31.816300 -40.985400 0.000008 0.000006 -4.924670 -5.688080 -59.387600 -11.754300 -0.000006 -0.000006 0.001035 0.147923 -10.574300
0.000000 0.000000 0.000000 0.000000 0.000000 -0.000000 -201.213000 93.049500 243.424000 -20.897300 86.345000 108.250000 15.735700 0.000005 -0.000001 48.823500 84.631700 -46.916200 8.984550 -0.406207 -0.000000 0.445309 -7.188520 3.843800 16.377300 -0.000001 -0.000001 -2.166770 5.243360 -0.789576 6.456720 -0.000001 -0.000000 -9.888870 8.806490 3.327230 12.994200 -0.242716 4.980390 -91.697800 5.823220 -73.714500 5.348090 -0.000007 -0.000001 -61.427900 10.550500 -22.552300 24.328600 0.000019 0.000005 21.901700 10.285500 -66.053400 22.291600 -0.000001 0.000005 2.286090 5.062310 5.967410 12.994500 -0.242716 -4.980390 89.455500 1.459960 -69.543200 -5.348130 -0.000001 -0.000004 -57.551600 -12.066800 12.766900 -24.328900 0.000322 -0.000009 0.795817 5.270950 -8.609570 -22.291500 -0.000108 -0.000004 6.450970 5.254570 1.311720 -2.192480 -6.469440 -0.000000 -173.833000 -8.408790 9.959720 39.081100 -0.000007 -0.000012 -0.000370 0.002627 8.010770 40.985400 -0.000006 -0.000013 -4.717820 22.886500 -57.973100 11.754300 -0.000000 0.000003 1.951330 2.111800 -20.064000 -2.192510 6.469440 -0.000001 -176.474000 1.675880 154.860000 -39.081100 -0.002282 -0.040193 0.017229 -0.033144 22.771300 -40.985400 0.000008 0.000006 -5.486800 -1.690700 -59.908300 -11.754300 -0.000006 -0.000006 0.001073 0.147070 -10.609000
0.000000 0.000000 0.000000 0.000000 0.000000 -0.000000 -197.954000 91.989400 243.649000 -46.621900 85.828500 134.301000 15.735700 0.000005 -0.000001 48.856500 84.206200 -47.067000 8.984550 -0.406207 -0.000000 1.095980 -7.725080 3.654200 16.377300 -0.000001 -0.000001 -2.977390 4.759250 -0.820831 6.456720 -0.000001 -0.000000 -10.594100 8.025740 3.188220 12.994200 -0.242716 4.980390 -91.687300 6.073200 -74.440900 5.348090 -0.000007 -0.000001 -61.939500 10.030300 -24.845800 24.328600 0.000019 0.000005 20.741300 8.720900 -68.180500 22.291600 -0.000001 0.000005 4.507650 5.128260 4.462620 12.994500 -0.242716 -4.980390 89.213100 2.130020 -69.717900 -5.348130 -0.000001 -0.000004 -57.400400 -12.257100 12.352000 -24.328900 0.000322 -0.000009 0.899468 6.503710 -7.901280 -22.291500 -0.000108 -0.000004 6.474580 5.237500 1.760550 -2.192480 -6.469440 -0.000000 -173.678000 -7.031760 11.241600 39.081100 -0.000007 -0.000012 -0.006217 0.034450 10.228800 40.985400 -0.000006 -0.000013 -3.909680 23.383000 -60.265200 11.754300 -0.000000 0.000003 2.969840 3.039680 -22.166400 -2.192510 6.469440 -0.000001 -176.630000 3.182730 155.346000 -39.081100 -0.002282 -0.040193 0.015666 -0.043087 15.978500 -40.985400 0.000008 0.000006 -7.569650 -0.061165 -62.171400 -11.754300 -0.000006 -0.000006 0.001121 0.146003 -10.652200
0.000000 0.000000 0.000000 0.000000 0.000000 -0.000000 -194.231000 90.850800 243.964000 -58.391900 85.063300 146.245000 15.735700 0.000005 -0.000001 49.698900 84.015600 -47.916000 8.984550 -0.406207 -0.000000 1.502050 -7.835100 3.669860 16.377300 -0.000001 -0.000001 -3.453740 4.398830 -1.152090 6.456720 -0.000001 -0.000000 -11.499800 7.341870 2.748250 12.994200 -0.242716 4.980390 -91.740800 6.421510 -74.797600 5.348090 -0.000007 -0.000001 -63.747000 9.741600 -25.657500 24.328600 0.000019 0.000005 17.895800 7.346830 -68.395900 22.291600 -0.000001 0.000005 6.853820 5.207950 2.521310 12.994500 -0.242716 -4.980390 88.779000 3.314260 -69.762200 -5.348130 -0.000001 -0.000004 -57.248700 -11.592400 11.042700 -24.328900 0.000322 -0.000009 0.840126 7.658260 -6.287890 -22.291500 -0.000108 -0.000004 7.580670 5.225280 2.075860 -2.192480 -6.469440 -0.000000 -173.053000 -6.524660 12.583900 39.081100 -0.000007 -0.000012 -0.013643 0.060942 12.617700 40.985400 -0.000006 -0.000013 -2.957110 24.180000 -62.043000 11.754300 -0.000000 0.000003 3.290520 3.050510 -24.614000 -2.192510 6.469440 -0.000001 -175.977000 4.601330 155.400000 -39.081100 -0.002282 -0.040193 0.012746 -0.043113 12.314000 -40.985400 0.000008 0.000006 -7.774640 -1.923740 -64.320400 -11.754300 -0.000006 -0.000006 0.001318 0.141344 -10.841300
0.000000 0.000000 0.000000 0.000000 0.000000 -0.000000 -190.145000 89.896800 244.446000 -51.886400 84.477400 138.929000 15.735700 0.000005 -0.000001 50.350800 84.311000 -48.112200 8.984550 -0.406207 -0.000000 1.154790 -7.386250 4.552730 16.377300 -0.000001 -0.000001 -3.457410 4.352920 -1.735420 6.456720 -0.000001 -0.000000 -12.619400 7.031490 1.594590 12.994200 -0.242716 4.980390 -92.002900 7.233950 -74.479100 5.348090 -0.000007 -0.000001 -65.588000 10.117700 -24.402600 24.328600 0.000019 0.000005 15.412200 6.459530 -67.799700 22.291600 -0.000001 0.000005 7.983710 5.197260 2.787450 12.994500 -0.242716 -4.980390 88.343700 4.470350 -69.645500 -5.348130 -0.000001 -0.000004 -57.625200 -10.319000 8.523850 -24.328900 0.000322 -0.000009 0.617976 8.866670 -4.010610 -22.291500 -0.000108 -0.000004 9.359190 5.195820 2.821300 -2.192480 -6.469440 -0.000000 -170.990000 -7.788480 12.982100 39.081100 -0.000007 -0.000012 -0.016654 0.061007 15.268700 40.985400 -0.000006 -0.000013 -2.306650 25.587200 -62.518200 11.754300 -0.000000 0.000003 1.360410 0.930118 -27.351700 -2.192510 6.469440 -0.000001 -173.478000 4.092820 150.924000 -39.081100 -0.002282 -0.040193 0.021142 -0.054998 17.950100 -40.985400 0.000008 0.000006 -1.393960 -5.851070 -63.701600 -11.754300 -0.000006 -0.000006 0.001925 0.123727 -11.555900
0.000000 0.000000 0.000000 0.000000 0.000000 -0.000000 -185.402000 88.977800 244.888000 -45.511000 83.911000 131.691000 15.735700 0.000005 -0.000001 49.079900 84.811600 -46.328000 8.984550 -0.406207 -0.000000 0.254538 -6.975300 5.521030 16.377300 -0.000001 -0.000001 -3.074070 4.437490 -2.337720 6.456720 -0.000001 -0.000000 -12.884000 7.071420 0.062448 12.994200 -0.242716 4.980390 -92.315800 8.069770 -73.929400 5.348090 -0.000007 -0.000001 -67.104400 11.031100 -20.895200 24.328600 0.000019 0.000005 16.568000 7.561630 -66.141100 22.291600 -0.000001 0.000005 7.647360 5.161460 3.669520 12.994500 -0.242716 -4.980390 88.112700 5.077390 -69.578300 -5.348130 -0.000001 -0.000004 -58.735800 -8.610530 6.218780 -24.328900 0.000322 -0.000009 0.434814 9.613420 -2.608090 -22.291500 -0.000108 -0.000004 9.872460 5.151170 3.916650 -2.192480 -6.469440 -0.000000 -169.451000 -7.629290 12.948100 39.081100 -0.000007 -0.000012 -0.010535 0.031234 18.638500 40.985400 -0.000006 -0.000013 -1.995110 25.547100 -60.928200 11.754300 -0.000000 0.000003 -0.079339 -0.390104 -32.770000 -2.192510 6.469440 -0.000001 -171.879000 2.654260 147.175000 -39.081100 -0.002282 -0.040193 0.126352 -0.247714 26.414300 -40.985400 0.000008 0.000006 4.304410 -6.920020 -58.997900 -11.754300 -0.000006 -0.000006 0.001163 0.145033 -10.691600
